<?xml version="1.0" encoding="utf-8"?>
<!-- Generator: Adobe Illustrator 21.0.0, SVG Export Plug-In . SVG Version: 6.00 Build 0)  -->
<svg version="1.1" id="Layer_1" xmlns="http://www.w3.org/2000/svg" xmlns:xlink="http://www.w3.org/1999/xlink" x="0px" y="0px"
	 viewBox="0 0 349.5 150" style="enable-background:new 0 0 349.5 150;" xml:space="preserve">
<style type="text/css">
	.st0{fill:#190637;}
	.st1{fill:#B5AEC1;}
</style>
<g>
	<path class="st0" d="M34.2,81.7c-4.8-2.4-8.5-5.8-11.1-10.2c-2.7-4.3-4-9.3-4-14.8c0-5.4,1.3-10.3,4-14.7
		c2.7-4.3,6.4-7.7,11.1-10.1c4.7-2.4,10.1-3.6,16-3.6c6,0,11.3,1.2,16.1,3.6c4.7,2.4,8.4,5.8,11.1,10.1c2.6,4.3,4,9.2,4,14.7
		c0,5.5-1.3,10.4-4,14.8c-2.6,4.3-6.3,7.7-11.1,10.2c-4.8,2.4-10.1,3.7-16.1,3.7C44.3,85.4,38.9,84.2,34.2,81.7z M58.5,66.5
		c2.2-2.3,3.3-5.6,3.3-9.7c0-4.1-1.1-7.3-3.3-9.6c-2.2-2.3-5-3.5-8.3-3.5c-3.4,0-6.2,1.2-8.3,3.5c-2.2,2.3-3.3,5.5-3.3,9.6
		c0,4.1,1.1,7.4,3.3,9.7c2.2,2.3,5,3.5,8.3,3.5C53.6,70,56.4,68.8,58.5,66.5z"/>
	<path class="st0" d="M178.4,34.5c4,4.1,6.1,10.2,6.1,18.4v31.6h-19.3V56.1c0-3.9-0.7-6.7-2.2-8.6c-1.5-1.8-3.5-2.7-6.2-2.7
		c-2.9,0-5.3,1-7,3.1c-1.8,2-2.6,5.1-2.6,9.3v27.4h-19.3V56.1c0-7.5-2.8-11.3-8.3-11.3c-3,0-5.4,1-7.1,3.1c-1.8,2-2.6,5.1-2.6,9.3
		v27.4H90.3V29.3h18.4v5.8c2-2.2,4.5-3.9,7.3-5c2.8-1.1,5.9-1.7,9.2-1.7c3.9,0,7.3,0.7,10.4,2.1c3.1,1.4,5.5,3.6,7.4,6.5
		c2.2-2.8,4.9-4.9,8.2-6.4c3.3-1.5,7-2.2,10.9-2.2C168.9,28.4,174.4,30.4,178.4,34.5z"/>
	<path class="st0" d="M256.1,8.9v75.5h-18.4V79c-3.6,4.3-9,6.4-16.2,6.4c-5,0-9.6-1.2-13.7-3.5c-4.1-2.3-7.4-5.7-9.8-10
		c-2.4-4.3-3.6-9.4-3.6-15.1c0-5.7,1.2-10.7,3.6-15c2.4-4.3,5.7-7.6,9.8-9.9c4.1-2.3,8.7-3.5,13.7-3.5c6.6,0,11.7,1.9,15.3,5.7V8.9
		H256.1z M233.8,66.5c2.2-2.3,3.3-5.6,3.3-9.7c0-4.1-1.1-7.3-3.2-9.6c-2.1-2.3-4.9-3.5-8.3-3.5c-3.4,0-6.2,1.2-8.3,3.5
		c-2.2,2.3-3.3,5.5-3.3,9.6c0,4.1,1.1,7.4,3.3,9.7c2.2,2.3,5,3.5,8.3,3.5C228.9,70,231.7,68.8,233.8,66.5z"/>
	<path class="st0" d="M316.9,31.8c4.1,2.3,7.4,5.6,9.8,9.9c2.4,4.3,3.6,9.3,3.6,15c0,5.7-1.2,10.7-3.6,15.1c-2.4,4.3-5.7,7.7-9.8,10
		c-4.1,2.3-8.7,3.5-13.7,3.5c-7.3,0-12.7-2.1-16.3-6.4v5.5h-18.4V8.9h19.3v25.1c3.7-3.8,8.9-5.7,15.4-5.7
		C308.3,28.4,312.8,29.5,316.9,31.8z M307.5,66.5c2.2-2.3,3.3-5.6,3.3-9.7c0-4.1-1.1-7.3-3.3-9.6c-2.2-2.3-5-3.5-8.3-3.5
		c-3.4,0-6.2,1.2-8.3,3.5c-2.2,2.3-3.3,5.5-3.3,9.6c0,4.1,1.1,7.4,3.3,9.7c2.2,2.3,5,3.5,8.3,3.5C302.6,70,305.4,68.8,307.5,66.5z"
		/>
</g>
<g>
	<path class="st0" d="M194.3,101.1c11.1,5.6,22.2,9.8,33.2,12.4c11,2.6,22.6,3.9,34.8,3.9s23.8-1.3,34.8-3.9
		c11-2.6,22.1-6.7,33.2-12.4v23.7c-8.7,5.4-18.9,9.5-30.6,12.4c-11.7,2.9-24.1,4.4-37.4,4.4c-13.3,0-25.7-1.5-37.4-4.4
		c-11.7-2.9-21.9-7.1-30.6-12.4V101.1z"/>
</g>
<g>
	<path class="st1" d="M21.7,123c-1.7-0.4-3.1-1-4.2-1.8l2.1-4.7c1,0.7,2.2,1.2,3.5,1.6c1.3,0.4,2.6,0.6,3.9,0.6
		c2.4,0,3.6-0.6,3.6-1.8c0-0.6-0.3-1.1-1-1.4c-0.7-0.3-1.8-0.6-3.3-1c-1.7-0.4-3.1-0.8-4.2-1.2c-1.1-0.4-2.1-1.1-2.9-2
		c-0.8-0.9-1.2-2.2-1.2-3.7c0-1.4,0.4-2.6,1.1-3.7c0.7-1.1,1.9-2,3.3-2.6c1.5-0.6,3.3-1,5.5-1c1.5,0,2.9,0.2,4.4,0.5
		c1.4,0.3,2.7,0.8,3.8,1.5l-2,4.7c-2.1-1.2-4.2-1.7-6.2-1.7c-1.3,0-2.2,0.2-2.8,0.6c-0.6,0.4-0.9,0.9-0.9,1.5c0,0.6,0.3,1,1,1.3
		c0.7,0.3,1.8,0.6,3.3,0.9c1.7,0.4,3.1,0.8,4.2,1.2c1.1,0.4,2.1,1.1,2.9,2c0.8,0.9,1.2,2.1,1.2,3.7c0,1.3-0.4,2.6-1.1,3.6
		c-0.7,1.1-1.9,2-3.4,2.6s-3.3,1-5.4,1C25.1,123.7,23.4,123.5,21.7,123z"/>
	<path class="st1" d="M63.6,118.3v4.9h-18v-22.4h17.6v4.9H51.9v3.8h10v4.7h-10v4.1H63.6z"/>
	<path class="st1" d="M87.9,118.9h-9.5l-1.8,4.4h-6.5l9.9-22.4h6.2l9.9,22.4h-6.6L87.9,118.9z M86.1,114.2l-2.9-7.2l-2.9,7.2H86.1z"
		/>
	<path class="st1" d="M113.7,117.3h-3.5v6h-6.3v-22.4h10.2c2,0,3.8,0.3,5.3,1c1.5,0.7,2.6,1.6,3.5,2.9c0.8,1.2,1.2,2.7,1.2,4.4
		c0,1.6-0.4,3-1.1,4.2c-0.8,1.2-1.8,2.1-3.2,2.8l4.8,7h-6.8L113.7,117.3z M116.7,106.7c-0.7-0.6-1.6-0.9-2.9-0.9h-3.5v6.6h3.5
		c1.3,0,2.3-0.3,2.9-0.8c0.7-0.6,1-1.4,1-2.4C117.7,108.1,117.4,107.3,116.7,106.7z"/>
	<path class="st1" d="M138.3,122.2c-1.9-1-3.3-2.4-4.4-4.1c-1.1-1.8-1.6-3.8-1.6-6s0.5-4.2,1.6-6c1.1-1.8,2.5-3.2,4.4-4.1
		c1.9-1,4-1.5,6.3-1.5c2,0,3.9,0.4,5.5,1.1c1.6,0.7,3,1.8,4.1,3.1l-4,3.6c-1.5-1.7-3.2-2.6-5.3-2.6c-1.2,0-2.3,0.3-3.2,0.8
		c-0.9,0.5-1.7,1.3-2.2,2.3c-0.5,1-0.8,2.1-0.8,3.3s0.3,2.4,0.8,3.3c0.5,1,1.3,1.7,2.2,2.3c0.9,0.5,2,0.8,3.2,0.8
		c2.1,0,3.8-0.9,5.3-2.6l4,3.6c-1.1,1.4-2.5,2.4-4.1,3.1c-1.6,0.7-3.5,1.1-5.5,1.1C142.2,123.7,140.1,123.2,138.3,122.2z"/>
	<path class="st1" d="M184.2,100.8v22.4h-6.3v-8.7h-8.6v8.7h-6.3v-22.4h6.3v8.4h8.6v-8.4H184.2z"/>
</g>
</svg>
